# xmcd
#
# Track frame offsets:
#	150
#	15935
#	32930
#	45547
#	56876
#	71249
#	85332
#	99311
#	112775
#	125868
#	135733
#	148912
#	161619
#
# Disc length: 2396 seconds
# Revision: 0
# Processed by: cddbd v1.5.2PL0 Copyright (c) Steve Scherf et al.
# Submitted via: dBpowerAMP V12.0
#
DISCID=b8095a0d
DTITLE=Paul Rishell - Talking Guitar
DYEAR=2012
DGENRE=Blues
TTITLE0=Fannin' Street (Mr.Tom Hughes' Town)
TTITLE1=Special Rider Blues
TTITLE2=M and O Blues
TTITLE3=Down the Dirt Road Blues
TTITLE4=Big Road Blues
TTITLE5=I'm Gonna Jump and Shout
TTITLE6=Police Dog Blues
TTITLE7=One Dime Blues
TTITLE8=Weeping Willow Blues
TTITLE9=Screamin and Cryin the Blues
TTITLE10=Tired of Being Mistreated
TTITLE11=Louise
TTITLE12=Michigan Water Blues
EXTD=
EXTT0=
EXTT1=
EXTT2=
EXTT3=
EXTT4=
EXTT5=
EXTT6=
EXTT7=
EXTT8=
EXTT9=
EXTT10=
EXTT11=
EXTT12=
PLAYORDER=
